# xmcd
#
# Track frame offsets:
#	150
#	12684
#	29313
#	41727
#	58669
#	73069
#	91113
#	106894
#	119547
#	135129
#	146997
#	164020
#	178297
#	191828
#
# Disc length: 2866 seconds
# Revision: 0
# Processed by: cddbd v1.5.2PL0 Copyright (c) Steve Scherf et al.
# Submitted via: dBpowerAMP V12.0
#
DISCID=d20b300e
DTITLE=Valentina - Comin` Down the Road
DYEAR=2009
DGENRE=cou
TTITLE0=Comin` Down the Road
TTITLE1=Stand Beside Me
TTITLE2=Sea Cruise
TTITLE3=I`ll Walk Through the Fire With You
TTITLE4=Me and You and a Dog Named Boo
TTITLE5=Swingin` Door
TTITLE6=`Til a Tear Becomes a Rose
TTITLE7=Da Doo Ron Ron
TTITLE8=Are You Still Mine
TTITLE9=Yummy Yummy Yummy
TTITLE10=This Land is Your Land
TTITLE11=Coat of Many Colors
TTITLE12=The Wild One
TTITLE13=Cool Change
EXTD=
EXTT0=
EXTT1=
EXTT2=
EXTT3=
EXTT4=
EXTT5=
EXTT6=
EXTT7=
EXTT8=
EXTT9=
EXTT10=
EXTT11=
EXTT12=
EXTT13=
PLAYORDER=
